<?xml version="1.0" encoding="UTF-8"?>
<svg version="1.1" xmlns="http://www.w3.org/2000/svg" width="225" height="225">
<path d="M0 0 C74.25 0 148.5 0 225 0 C225 74.25 225 148.5 225 225 C150.75 225 76.5 225 0 225 C0 150.75 0 76.5 0 0 Z " fill="#2C98CC" transform="translate(0,0)"/>
<path d="M0 0 C35.31 0 70.62 0 107 0 C107 74.25 107 148.5 107 225 C71.69 225 36.38 225 0 225 C0 204.21 0 183.42 0 162 C3.96 161.01 7.92 160.02 12 159 C15.57065928 157.53465742 15.57065928 157.53465742 18.5 155.875 C24.86359465 152.43660612 24.86359465 152.43660612 28 152 C33.7718501 154.62423111 39.12761098 160.45763864 42 166 C43.7165735 174.03880976 42.64251506 181.83087992 42 190 C52.23 190 62.46 190 73 190 C73 180.1 73 170.2 73 160 C67.493125 160.4021875 67.493125 160.4021875 61.875 160.8125 C54.05869761 161.08961383 48.39687446 160.73427158 42.40283203 155.39916992 C39.7916672 152.70158779 37.38212622 149.9024936 35 147 C34.34 146.67 33.68 146.34 33 146 C34.41449754 141.88509805 36.50935266 138.48128408 38.87890625 134.8671875 C40.15651676 132.89250091 40.15651676 132.89250091 41 130 C41.66 130 42.32 130 43 130 C46.57501945 114.3592899 46.13259618 99.11867068 38 85 C37.62230469 84.32582031 37.24460938 83.65164062 36.85546875 82.95703125 C35.91760946 81.29672204 34.96082362 79.6471262 34 78 C35.37167121 76.60089536 36.74752274 75.20588871 38.125 73.8125 C38.89070313 73.03519531 39.65640625 72.25789063 40.4453125 71.45703125 C41.28835937 70.64621094 42.13140625 69.83539063 43 69 C44.2684375 67.62328125 44.2684375 67.62328125 45.5625 66.21875 C49.97307833 62.60247045 55.47834171 63.47316625 60.875 63.6875 C64.54625 63.790625 68.2175 63.89375 72 64 C72 54.1 72 44.2 72 34 C62.43 34 52.86 34 43 34 C43.31499106 41.58549945 43.31499106 41.58549945 43.72070312 49.16625977 C43.88097087 56.84295565 43.88097087 56.84295565 41.32421875 60.20092773 C39.29634758 61.96379301 37.22080628 63.4910664 35 65 C33.64882001 66.29412003 32.30924937 67.60097461 31 68.9375 C30.4225 69.52402344 29.845 70.11054687 29.25 70.71484375 C28.8375 71.13894531 28.425 71.56304687 28 72 C23.29528249 70.21220735 18.95464273 67.90858262 14.5234375 65.53515625 C9.87390569 63.50936246 4.89297799 62.33444854 0 61 C0 40.87 0 20.74 0 0 Z " fill="#2C98CC" transform="translate(118,0)"/>
<path d="M0 0 C3.3 0 6.6 0 10 0 C10 20.13 10 40.26 10 61 C16.93 62.485 16.93 62.485 24 64 C30.125 67.1875 30.125 67.1875 32.6953125 68.79296875 C35.15696798 70.30930059 35.15696798 70.30930059 39 70 C41.18524367 68.05240883 43.1460436 66.13785071 45.125 64 C47.04805613 61.95242944 48.99180045 59.96721589 51 58 C51.66 58 52.32 58 53 58 C53 50.08 53 42.16 53 34 C62.57 34 72.14 34 82 34 C82 43.9 82 53.8 82 64 C76.740625 63.8453125 76.740625 63.8453125 71.375 63.6875 C63.68913046 63.7451862 58.23549335 64.51388728 52.37548828 69.7199707 C49.75937652 72.37870966 47.33558368 75.08962796 45 78 C45.31453125 78.54527344 45.6290625 79.09054688 45.953125 79.65234375 C54.26926857 94.3057895 59.11623672 108.39775027 54.5 125.375 C54.01835733 126.92250006 53.5256392 128.46688567 53 130 C52.34 130 51.68 130 51 130 C50.90847656 130.70511719 50.81695312 131.41023437 50.72265625 132.13671875 C49.85992047 135.5550178 48.38106777 137.87947955 46.4375 140.8125 C45.47650391 142.27623047 45.47650391 142.27623047 44.49609375 143.76953125 C44.00238281 144.50558594 43.50867188 145.24164063 43 146 C43.84304687 146.32291016 43.84304687 146.32291016 44.703125 146.65234375 C47 148 47 148 49.171875 150.56640625 C54.01110044 156.19017278 57.5436905 159.15635948 65.125 159.9453125 C71.11246623 160.32929981 76.9659473 160.10056754 83 160 C83 169.9 83 179.8 83 190 C72.77 190 62.54 190 52 190 C52.103125 186.308125 52.20625 182.61625 52.3125 178.8125 C52.23956069 171.2134563 51.74825608 165.37637767 46.4753418 159.61401367 C43.72975867 157.03939681 41.25471591 154.93534389 38 153 C34.37440415 153.53134108 31.4673693 155.23296108 28.25 156.9375 C22.09093385 160.06961047 16.99253848 162 10 162 C10 182.79 10 203.58 10 225 C6.7 225 3.4 225 0 225 C0 204.21 0 183.42 0 162 C-2.97 161.67 -5.94 161.34 -9 161 C-12.36328125 159.9140625 -12.36328125 159.9140625 -15.3125 158.625 C-16.79169922 157.99464844 -16.79169922 157.99464844 -18.30078125 157.3515625 C-21 156 -21 156 -23.04296875 154.2734375 C-24.9405134 152.78036025 -24.9405134 152.78036025 -27.359375 153.03125 C-33.65509475 155.34092233 -39.04746461 159.948814 -42 166 C-43.76887441 174.28154838 -43.17957986 182.55974671 -43 191 C-53.23 191 -63.46 191 -74 191 C-74 180.77 -74 170.54 -74 160 C-68.369375 160.0309375 -68.369375 160.0309375 -62.625 160.0625 C-52.2943593 159.91832424 -52.2943593 159.91832424 -43.8125 154.6875 C-42.51887084 153.14382024 -41.24679153 151.58175045 -40 150 C-38.3635854 148.62970703 -36.70360807 147.28579746 -35 146 C-35.6332325 142.32040572 -37.26906967 139.92282323 -39.375 136.875 C-46.78962167 125.28870208 -47.85842559 112.6418317 -45.2734375 99.23046875 C-43.4471459 92.85329603 -40.93456953 87.33789932 -37 82 C-36.401875 81.175 -35.80375 80.35 -35.1875 79.5 C-34.795625 79.005 -34.40375 78.51 -34 78 C-34.56203125 77.78472656 -35.1240625 77.56945312 -35.703125 77.34765625 C-38 76 -38 76 -40.171875 73.43359375 C-45.01110044 67.80982722 -48.5436905 64.84364052 -56.125 64.0546875 C-62.11246623 63.67070019 -67.9659473 63.89943246 -74 64 C-74 54.1 -74 44.2 -74 34 C-64.1 34 -54.2 34 -44 34 C-44 41.92 -44 49.84 -44 58 C-42.68 58.66 -41.36 59.32 -40 60 C-37.61382155 62.36863302 -35.31856369 64.78083476 -33.06640625 67.27539062 C-31.51891711 68.96166399 -31.51891711 68.96166399 -29 71 C-25.90897608 70.9660327 -24.06583858 69.47118973 -21.625 67.6875 C-15.50065738 63.70494072 -7.32503714 61 0 61 C0 40.87 0 20.74 0 0 Z " fill="#040506" transform="translate(108,0)"/>
<path d="M0 0 C1.36125 1.0828125 1.36125 1.0828125 2.75 2.1875 C3.38421875 2.67992188 4.0184375 3.17234375 4.671875 3.6796875 C11.3763869 9.14915773 16.65562173 15.66454398 18.75 24.1875 C18.98130344 27.98357612 18.93876245 31.76127688 18.875 35.5625 C18.86597656 36.58472656 18.85695313 37.60695312 18.84765625 38.66015625 C18.8242043 41.16951522 18.79138355 43.67838336 18.75 46.1875 C18.09 46.1875 17.43 46.1875 16.75 46.1875 C16.62431641 47.734375 16.62431641 47.734375 16.49609375 49.3125 C14.91362034 57.53141948 8.46697797 64.29361556 1.875 69.1875 C-8.44986551 75.66429447 -18.24793185 77.39495152 -30.25 76.1875 C-43.49926606 73.07376361 -52.56313639 64.58233478 -60.0234375 53.55859375 C-64.71453643 44.49013181 -65.03275214 30.98781292 -62.1875 21.1875 C-56.99626261 8.81585949 -47.48946851 0.22483228 -35.25 -4.8125 C-23.80140639 -8.65316068 -10.17390889 -5.67391073 0 0 Z " fill="#FAFAFA" transform="translate(135.25,76.8125)"/>
<path d="M0 0 C7.92 0 15.84 0 24 0 C24 7.92 24 15.84 24 24 C16.08 24 8.16 24 0 24 C0 16.08 0 8.16 0 0 Z " fill="#040404" transform="translate(102,99)"/>
</svg>
